<?xml version="1.0" standalone="no"?>
<!DOCTYPE svg PUBLIC "-//W3C//DTD SVG 20010904//EN"
 "http://www.w3.org/TR/2001/REC-SVG-20010904/DTD/svg10.dtd">
<svg version="1.0" xmlns="http://www.w3.org/2000/svg"
 width="600.000000pt" height="600.000000pt" viewBox="0 0 600.000000 600.000000"
 preserveAspectRatio="xMidYMid meet">
<metadata>
Created by potrace 1.11, written by Peter Selinger 2001-2013
</metadata>
<g transform="translate(0.000000,600.000000) scale(0.100000,-0.100000)"
fill="#000000" stroke="none">
<path d="M3780 4954 c-19 -2 -77 -9 -129 -15 -197 -23 -432 -95 -621 -189
-389 -195 -730 -551 -939 -980 -27 -53 -53 -111 -59 -127 -10 -29 -12 -30 -88
-36 -136 -10 -300 -77 -373 -151 -61 -63 -56 -85 29 -112 79 -25 136 -54 214
-107 l59 -40 -7 -228 c-9 -313 -17 -375 -50 -408 -25 -24 -33 -26 -130 -27
-112 -2 -138 -10 -160 -52 -72 -139 35 -375 272 -604 49 -47 103 -93 120 -102
29 -15 181 -30 397 -40 56 -2 116 -14 199 -40 146 -45 433 -103 746 -151 257
-40 275 -46 364 -127 41 -37 52 -58 86 -150 50 -136 73 -181 106 -207 35 -27
56 -26 92 4 50 42 92 164 112 319 13 103 47 174 119 247 51 51 66 59 166 94
173 59 492 183 587 227 l87 40 45 -26 c51 -30 110 -98 191 -222 53 -80 57 -84
93 -84 24 0 47 8 67 24 l30 24 1 144 c2 176 15 233 84 353 183 317 301 639
346 945 24 168 15 435 -19 582 -57 239 -162 439 -326 623 -39 43 -71 86 -71
95 0 31 -48 116 -83 147 -39 35 -90 49 -138 39 -24 -4 -47 4 -117 44 -220 125
-495 213 -792 255 -111 15 -438 28 -510 19z"/>
<path d="M578 2530 c-205 -33 -358 -111 -408 -211 -24 -46 -27 -153 -6 -202
15 -36 102 -121 134 -131 40 -13 27 -48 -33 -91 -86 -62 -109 -103 -113 -195
-4 -82 8 -120 51 -168 18 -20 21 -33 19 -90 -3 -46 2 -81 13 -110 33 -82 152
-160 312 -204 66 -18 105 -22 253 -22 149 0 187 4 255 22 155 43 270 114 311
193 39 75 26 183 -29 247 -48 55 -41 89 28 136 83 57 109 103 113 196 3 62 0
84 -16 117 -22 43 -74 93 -122 118 -29 15 -30 18 -30 81 0 79 -22 127 -82 179
-100 85 -259 134 -463 140 -71 2 -156 0 -187 -5z m395 -99 c147 -39 271 -126
246 -172 -14 -28 -87 -78 -152 -105 -176 -75 -473 -76 -667 -4 -62 23 -144 79
-160 109 -8 17 -5 26 20 54 31 35 117 86 184 107 139 45 383 50 529 11z m353
-380 c22 -15 48 -40 58 -55 17 -27 17 -28 -6 -53 -98 -107 -352 -170 -585
-144 -58 7 -139 23 -179 35 -69 22 -170 73 -162 82 3 2 42 -4 89 -12 117 -23
343 -15 453 15 100 28 202 79 245 125 19 20 38 36 41 36 4 0 25 -13 46 -29z
m-992 -235 c9 -38 91 -113 159 -145 89 -43 207 -73 317 -80 l95 -7 -70 -8
c-212 -26 -469 33 -569 130 -36 35 -37 36 -20 62 17 26 64 71 75 72 4 0 10
-11 13 -24z m952 -311 c16 -25 16 -27 -12 -56 -48 -50 -170 -105 -278 -124
-186 -34 -442 -9 -565 55 -78 40 -78 50 1 25 184 -58 428 -56 611 5 82 28 186
84 201 109 11 17 24 13 42 -14z"/>
<path d="M483 2394 c-20 -9 -15 -23 12 -36 23 -10 24 -13 9 -29 -59 -65 84
-112 226 -74 30 8 66 15 80 15 24 -1 24 -1 6 -15 -11 -8 -37 -15 -58 -15 -22
0 -53 -7 -70 -16 -30 -16 -31 -17 -13 -30 22 -16 95 -18 143 -5 24 7 44 6 76
-6 43 -16 96 -12 96 7 0 5 -14 17 -31 25 -29 15 -30 18 -15 34 27 30 19 51
-26 71 -52 24 -120 25 -200 4 -33 -8 -72 -13 -87 -12 l-26 4 30 8 c97 23 106
27 103 44 -3 14 -17 17 -88 19 -47 1 -101 4 -120 7 -19 3 -41 3 -47 0z"/>
</g>
</svg>
